<?xml version="1.0" encoding="UTF-8"?>
<svg id="Ebene_1" data-name="Ebene 1" xmlns="http://www.w3.org/2000/svg" viewBox="0 0 24 24">
  <defs>
    <style>
      .cls-1 {
        fill: #fff;
      }
    </style>
  </defs>
  <path class="cls-1" d="m16.9,7.9h-2v8.3h2c.8,0,1.5-.2,1.9-.6.5-.4.7-1,.7-1.8v-3.3c0-.8-.2-1.4-.7-1.8-.5-.6-1.1-.8-1.9-.8Z"/>
  <path class="cls-1" d="m12,0C5.4,0,0,5.4,0,12s5.4,12,12,12,12-5.4,12-12S18.6,0,12,0Zm-1.2,13.5c0,.8-.2,1.6-.5,2.2-.3.7-.7,1.2-1.3,1.5s-1.3.5-2.1.5-1.5-.2-2.1-.5-1.1-.8-1.4-1.4c-.3-.6-.5-1.3-.5-2.1v-3.3c0-.8.2-1.6.5-2.2.3-.6.8-1.1,1.4-1.5s1.3-.5,2.1-.5c.6,0,1.2.1,1.8.4.5.3,1,.7,1.4,1.2.4.5.6,1.1.7,1.8h-1.8c-.1-.4-.3-.7-.5-1-.2-.2-.4-.4-.7-.6-.3-.1-.6-.2-.9-.2-.5,0-.9.1-1.3.3-.3.3-.6.6-.8,1-.2.4-.3.9-.3,1.4v3.3c0,.5.1.9.3,1.3s.5.6.8.8c.4.2.8.3,1.2.3.5,0,.9-.1,1.2-.3.4-.2.6-.5.8-.9s.3-.9.3-1.4v-.5h-2.2v-1.5h3.9v1.9Zm9.8,2.3c-.3.6-.8,1.1-1.5,1.4-.6.3-1.4.5-2.3.5h-3.6V6.4h3.6c.9,0,1.7.2,2.3.5.6.3,1.1.8,1.5,1.4.3.6.5,1.3.5,2.2v3.2c0,.7-.2,1.5-.5,2.1Z"/>
</svg>