<?xml version="1.0" encoding="utf-8"?>
<!-- Generator: Adobe Illustrator 27.2.0, SVG Export Plug-In . SVG Version: 6.00 Build 0)  -->
<svg version="1.1" id="Ebene_1" xmlns="http://www.w3.org/2000/svg" xmlns:xlink="http://www.w3.org/1999/xlink" x="0px" y="0px"
	 viewBox="0 0 24 24" style="enable-background:new 0 0 24 24;" xml:space="preserve">
<style type="text/css">
	.st0{fill:#FFFFFF;}
</style>
<g>
	<g>
		<path class="st0" d="M10.8-17.4v2.5c0,1.1-0.2,2-0.6,2.8s-1,1.4-1.7,1.9S6.8-9.6,5.8-9.6c-1,0-1.9-0.2-2.6-0.6s-1.3-1-1.8-1.8
			s-0.6-1.6-0.6-2.6v-4.2c0-1.1,0.2-2,0.6-2.8s1-1.4,1.7-1.9s1.6-0.7,2.6-0.7c0.8,0,1.6,0.2,2.3,0.5s1.3,0.8,1.7,1.5
			s0.8,1.4,0.9,2.2H8.5c-0.1-0.5-0.3-0.9-0.6-1.2s-0.6-0.6-1-0.8s-0.8-0.3-1.2-0.3c-0.6,0-1.1,0.1-1.5,0.4s-0.8,0.7-1,1.2
			s-0.4,1.1-0.4,1.8v4.2c0,0.6,0.1,1.1,0.4,1.6s0.6,0.8,1,1.1s1,0.4,1.6,0.4c0.6,0,1.1-0.1,1.5-0.4s0.8-0.6,1-1.1s0.4-1.1,0.4-1.8
			v-0.6H5.8v-1.9H10.8z"/>
		<path class="st0" d="M14-24h2v14.2h-2V-24z M15.3-11.7h3.2c1,0,1.9-0.3,2.4-0.8s0.9-1.3,0.9-2.3V-19c0-1-0.3-1.8-0.9-2.3
			s-1.4-0.8-2.4-0.8h-3.2V-24h3.2c1.1,0,2.1,0.2,2.9,0.6c0.8,0.4,1.4,1,1.8,1.7c0.4,0.8,0.6,1.7,0.6,2.8v4c0,1.1-0.2,2-0.6,2.8
			c-0.4,0.8-1,1.3-1.9,1.7c-0.8,0.4-1.8,0.6-2.9,0.6h-3.1V-11.7z"/>
	</g>
</g>
<g>
	<path d="M16.9,7.9h-2v8.3h2c0.8,0,1.5-0.2,1.9-0.6c0.5-0.4,0.7-1,0.7-1.8v-3.3c0-0.8-0.2-1.4-0.7-1.8C18.3,8.1,17.7,7.9,16.9,7.9z"
		/>
	<path d="M12,0C5.4,0,0,5.4,0,12s5.4,12,12,12s12-5.4,12-12S18.6,0,12,0z M10.8,13.5c0,0.8-0.2,1.6-0.5,2.2C10,16.4,9.6,16.9,9,17.2
		s-1.3,0.5-2.1,0.5c-0.8,0-1.5-0.2-2.1-0.5c-0.6-0.3-1.1-0.8-1.4-1.4c-0.3-0.6-0.5-1.3-0.5-2.1v-3.3c0-0.8,0.2-1.6,0.5-2.2
		c0.3-0.6,0.8-1.1,1.4-1.5s1.3-0.5,2.1-0.5c0.6,0,1.2,0.1,1.8,0.4c0.5,0.3,1,0.7,1.4,1.2c0.4,0.5,0.6,1.1,0.7,1.8H9
		c-0.1-0.4-0.3-0.7-0.5-1C8.3,8.4,8.1,8.2,7.8,8C7.5,7.9,7.2,7.8,6.9,7.8C6.4,7.8,6,7.9,5.6,8.1C5.3,8.4,5,8.7,4.8,9.1
		c-0.2,0.4-0.3,0.9-0.3,1.4v3.3c0,0.5,0.1,0.9,0.3,1.3c0.2,0.4,0.5,0.6,0.8,0.8c0.4,0.2,0.8,0.3,1.2,0.3c0.5,0,0.9-0.1,1.2-0.3
		c0.4-0.2,0.6-0.5,0.8-0.9c0.2-0.4,0.3-0.9,0.3-1.4v-0.5H6.9v-1.5h3.9V13.5z M20.6,15.8c-0.3,0.6-0.8,1.1-1.5,1.4
		c-0.6,0.3-1.4,0.5-2.3,0.5h-2h-0.5h-1.1V6.4h1.1h0.5h2c0.9,0,1.7,0.2,2.3,0.5c0.6,0.3,1.1,0.8,1.5,1.4c0.3,0.6,0.5,1.3,0.5,2.2v3.2
		C21.1,14.4,20.9,15.2,20.6,15.8z"/>
</g>
</svg>
